<?xml version="1.0" encoding="utf-8"?>
<!-- Generator: Adobe Illustrator 23.0.3, SVG Export Plug-In . SVG Version: 6.00 Build 0)  -->
<svg version="1.1"
     id="Calque_1" xmlns:cc="http://creativecommons.org/ns#" xmlns:dc="http://purl.org/dc/elements/1.1/" xmlns:inkscape="http://www.inkscape.org/namespaces/inkscape" xmlns:rdf="http://www.w3.org/1999/02/22-rdf-syntax-ns#" xmlns:sodipodi="http://sodipodi.sourceforge.net/DTD/sodipodi-0.dtd" xmlns:svg="http://www.w3.org/2000/svg"
     xmlns="http://www.w3.org/2000/svg" xmlns:xlink="http://www.w3.org/1999/xlink" x="0px" y="0px" viewBox="0 0 16 20"
     style="enable-background:new 0 0 16 20;" xml:space="preserve">
<style type="text/css">
	.st0{fill:#E06A2C;}
</style>
    <g>
	<path class="st0" d="M11.4,6.3h3.1c-0.8-1.8-2.4-3.1-4.4-3.7c0.2,0.4,0.5,0.8,0.6,1.2C11,4.5,11.2,5.4,11.4,6.3z"/>
        <path class="st0" d="M11.6,9.4c0,0.7,0,1.4-0.1,2h3.4c0.2-0.6,0.3-1.3,0.3-2s-0.1-1.4-0.3-2h-3.4C11.6,8,11.6,8.7,11.6,9.4z"/>
        <path class="st0" d="M5,12.4H1.9c0.8,1.8,2.4,3.1,4.4,3.7c-0.2-0.3-0.4-0.7-0.6-1.2C5.4,14.2,5.2,13.3,5,12.4z"/>
        <path class="st0" d="M10.4,6.3C10.2,5.5,10,4.8,9.8,4.2S9.3,3.1,9,2.8S8.4,2.4,8.2,2.4S7.7,2.5,7.4,2.8C7.1,3.1,6.8,3.6,6.6,4.2
		C6.3,4.8,6.1,5.5,6,6.3H10.4z"/>
        <path class="st0" d="M4.8,9.4c0-0.7,0-1.4,0.1-2H1.5C1.3,8,1.2,8.7,1.2,9.4c0,0.7,0.1,1.4,0.3,2h3.4C4.8,10.8,4.8,10.1,4.8,9.4z"/>
        <path class="st0" d="M5.7,3.8C5.8,3.4,6.1,3,6.3,2.6c-2,0.6-3.6,2-4.4,3.7H5C5.2,5.4,5.4,4.5,5.7,3.8z"/>
        <path class="st0" d="M9.8,11.4h0.8c0-0.6,0.1-1.3,0.1-2s0-1.4-0.1-2H5.9C5.8,8,5.8,8.7,5.8,9.4c0,0.7,0,1.4,0.1,2h3l-0.1-0.5
		L9.8,11.4z"/>
        <g>
		<path class="st0" d="M6,12.4c0.2,0.8,0.4,1.5,0.5,2.1c0.2,0.6,0.5,1.1,0.8,1.4s0.6,0.4,0.8,0.4c0.3,0,0.5-0.1,0.8-0.4
			c0.2-0.2,0.5-0.6,0.6-1l-0.5-2.5H6z"/>
            <path class="st0" d="M11.5,12.4l2.2,1.3c0.3-0.4,0.6-0.8,0.8-1.3H11.5z"/>
            <polygon class="st0" points="13.7,14.2 13.4,14 11.3,12.8 9.5,11.8 9.6,12.4 9.9,14 10.3,15.9 10.3,16 10.4,16.5 10.8,15.9
			11.4,15.1 11.6,15.5 13,17.4 13.6,17 12.3,15.1 12,14.7 13.1,14.3 		"/>
	</g>
</g>
</svg>
