<?xml version="1.0" encoding="utf-8"?>
<!-- Generator: Adobe Illustrator 23.0.3, SVG Export Plug-In . SVG Version: 6.00 Build 0)  -->
<svg version="1.1" id="Calque_1" xmlns="http://www.w3.org/2000/svg" xmlns:xlink="http://www.w3.org/1999/xlink" x="0px" y="0px"
     viewBox="0 0 512 516" style="enable-background:new 0 0 512 516;" xml:space="preserve">
<style type="text/css">
	.st0{fill:#E06A2C;}
</style>
    <path class="st0" d="M474.6,128.2L507,96c5.3-5.3,3.2-14.3-4-16.7L477.9,71c8.9-9.9,8.8-25-0.8-34.5c-9.6-9.5-24.8-9.6-34.8-0.8
	L434,10.8c-2.4-7.1-11.5-9.2-16.8-3.9l-32.5,32.2C347,16.9,303,3.9,256,3.9C115.9,3.9,2,117,2,256s113.9,252.1,254,252.1
	S510,395,510,256C510,209.3,496.9,165.7,474.6,128.2z M256,457.7c-112,0-203.2-90.5-203.2-201.7C52.8,144.8,144,54.3,256,54.3
	c39.3,0,76,11.3,107.2,30.6l6.6,19.7c0.2,0.7,0.8,1.1,1.1,1.7l-26.7,26.5c-24.9-17.6-55.3-28.1-88.2-28.1
	c-84,0-152.4,67.8-152.4,151.3c0,83.4,68.4,151.3,152.4,151.3S408.4,339.4,408.4,256c0-32.6-10.6-62.8-28.3-87.5l26.7-26.5
	c0.6,0.3,1,0.9,1.7,1.1l19.8,6.6c19.4,30.9,30.9,67.3,30.9,106.3C459.2,367.2,368,457.7,256,457.7z M357.6,256
	c0,55.6-45.6,100.8-101.6,100.8S154.4,311.6,154.4,256S200,155.2,256,155.2c18.8,0,36.2,5.4,51.3,14.3l-38.3,38
	c-4.2-1.1-8.5-1.9-13-1.9c-28,0-50.8,22.6-50.8,50.4c0,27.8,22.8,50.4,50.8,50.4s50.8-22.6,50.8-50.4c0-4.5-0.8-8.8-1.9-12.9
	l38.3-38C352.1,220.1,357.6,237.4,357.6,256z"/>
</svg>
